<mxfile host="app.diagrams.net" modified="2023-11-29T13:29:29.348Z" agent="Mozilla/5.0 (Windows NT 10.0; Win64; x64) AppleWebKit/537.36 (KHTML, like Gecko) Chrome/119.0.0.0 Safari/537.36 Edg/119.0.0.0" etag="5TtDKRTlX41HUaBgEUp3" version="22.1.4" type="device">
  <diagram name="Page-1" id="Ivk7CUhVoMojKeVd6gZh">
    <mxGraphModel dx="1419" dy="634" grid="1" gridSize="10" guides="1" tooltips="1" connect="1" arrows="1" fold="1" page="1" pageScale="1" pageWidth="850" pageHeight="1100" math="0" shadow="0">
      <root>
        <mxCell id="0" />
        <mxCell id="1" parent="0" />
        <mxCell id="4aZllrbJ_D_fgoe5qWXL-2" value="" style="edgeStyle=orthogonalEdgeStyle;rounded=0;orthogonalLoop=1;jettySize=auto;html=1;" edge="1" parent="1" source="-SY4UaUG2rWS23JNXaPK-1" target="4aZllrbJ_D_fgoe5qWXL-1">
          <mxGeometry relative="1" as="geometry" />
        </mxCell>
        <mxCell id="-SY4UaUG2rWS23JNXaPK-1" value="" style="rounded=0;whiteSpace=wrap;html=1;" parent="1" vertex="1">
          <mxGeometry x="345" y="30" width="120" height="60" as="geometry" />
        </mxCell>
        <mxCell id="-SY4UaUG2rWS23JNXaPK-2" value="Core" style="text;html=1;strokeColor=none;fillColor=none;align=center;verticalAlign=middle;whiteSpace=wrap;rounded=0;" parent="1" vertex="1">
          <mxGeometry x="350" y="41.25" width="110" height="37.5" as="geometry" />
        </mxCell>
        <mxCell id="-SY4UaUG2rWS23JNXaPK-3" value="" style="rounded=0;whiteSpace=wrap;html=1;" parent="1" vertex="1">
          <mxGeometry x="265" y="130" width="120" height="60" as="geometry" />
        </mxCell>
        <mxCell id="-SY4UaUG2rWS23JNXaPK-4" value="StartScreen" style="text;html=1;strokeColor=none;fillColor=none;align=center;verticalAlign=middle;whiteSpace=wrap;rounded=0;" parent="1" vertex="1">
          <mxGeometry x="270" y="141.25" width="110" height="37.5" as="geometry" />
        </mxCell>
        <mxCell id="-SY4UaUG2rWS23JNXaPK-5" value="" style="rounded=0;whiteSpace=wrap;html=1;" parent="1" vertex="1">
          <mxGeometry x="425" y="130" width="120" height="60" as="geometry" />
        </mxCell>
        <mxCell id="-SY4UaUG2rWS23JNXaPK-6" value="MainWindow" style="text;html=1;strokeColor=none;fillColor=none;align=center;verticalAlign=middle;whiteSpace=wrap;rounded=0;" parent="1" vertex="1">
          <mxGeometry x="430" y="141.25" width="110" height="37.5" as="geometry" />
        </mxCell>
        <mxCell id="-SY4UaUG2rWS23JNXaPK-7" value="" style="rounded=0;whiteSpace=wrap;html=1;" parent="1" vertex="1">
          <mxGeometry x="625" y="41.25" width="120" height="60" as="geometry" />
        </mxCell>
        <mxCell id="-SY4UaUG2rWS23JNXaPK-8" value="ToDoList" style="text;html=1;strokeColor=none;fillColor=none;align=center;verticalAlign=middle;whiteSpace=wrap;rounded=0;" parent="1" vertex="1">
          <mxGeometry x="630" y="52.5" width="110" height="37.5" as="geometry" />
        </mxCell>
        <mxCell id="-SY4UaUG2rWS23JNXaPK-9" value="" style="rounded=0;whiteSpace=wrap;html=1;" parent="1" vertex="1">
          <mxGeometry x="625" y="130" width="120" height="60" as="geometry" />
        </mxCell>
        <mxCell id="-SY4UaUG2rWS23JNXaPK-10" value="Friends" style="text;html=1;strokeColor=none;fillColor=none;align=center;verticalAlign=middle;whiteSpace=wrap;rounded=0;" parent="1" vertex="1">
          <mxGeometry x="630" y="141.25" width="110" height="37.5" as="geometry" />
        </mxCell>
        <mxCell id="-SY4UaUG2rWS23JNXaPK-11" value="" style="rounded=0;whiteSpace=wrap;html=1;" parent="1" vertex="1">
          <mxGeometry x="625" y="220" width="120" height="60" as="geometry" />
        </mxCell>
        <mxCell id="-SY4UaUG2rWS23JNXaPK-12" value="Settings" style="text;html=1;strokeColor=none;fillColor=none;align=center;verticalAlign=middle;whiteSpace=wrap;rounded=0;" parent="1" vertex="1">
          <mxGeometry x="630" y="231.25" width="110" height="37.5" as="geometry" />
        </mxCell>
        <mxCell id="-SY4UaUG2rWS23JNXaPK-13" value="" style="shape=cylinder3;whiteSpace=wrap;html=1;boundedLbl=1;backgroundOutline=1;size=15;" parent="1" vertex="1">
          <mxGeometry x="455" y="220" width="60" height="60" as="geometry" />
        </mxCell>
        <mxCell id="-SY4UaUG2rWS23JNXaPK-14" value="" style="endArrow=classic;html=1;rounded=0;exitX=0.5;exitY=1;exitDx=0;exitDy=0;entryX=0.5;entryY=0;entryDx=0;entryDy=0;" parent="1" source="-SY4UaUG2rWS23JNXaPK-1" target="-SY4UaUG2rWS23JNXaPK-3" edge="1">
          <mxGeometry width="50" height="50" relative="1" as="geometry">
            <mxPoint x="465" y="170" as="sourcePoint" />
            <mxPoint x="515" y="120" as="targetPoint" />
          </mxGeometry>
        </mxCell>
        <mxCell id="-SY4UaUG2rWS23JNXaPK-15" value="" style="endArrow=classic;html=1;rounded=0;entryX=0.5;entryY=0;entryDx=0;entryDy=0;" parent="1" target="-SY4UaUG2rWS23JNXaPK-5" edge="1">
          <mxGeometry width="50" height="50" relative="1" as="geometry">
            <mxPoint x="405" y="90" as="sourcePoint" />
            <mxPoint x="515" y="120" as="targetPoint" />
          </mxGeometry>
        </mxCell>
        <mxCell id="-SY4UaUG2rWS23JNXaPK-16" value="" style="endArrow=classic;startArrow=classic;html=1;rounded=0;entryX=0.5;entryY=1;entryDx=0;entryDy=0;exitX=0.5;exitY=0;exitDx=0;exitDy=0;exitPerimeter=0;" parent="1" source="-SY4UaUG2rWS23JNXaPK-13" target="-SY4UaUG2rWS23JNXaPK-5" edge="1">
          <mxGeometry width="50" height="50" relative="1" as="geometry">
            <mxPoint x="365" y="270" as="sourcePoint" />
            <mxPoint x="415" y="220" as="targetPoint" />
          </mxGeometry>
        </mxCell>
        <mxCell id="-SY4UaUG2rWS23JNXaPK-17" value="" style="endArrow=classic;html=1;rounded=0;exitX=0;exitY=0.5;exitDx=0;exitDy=0;entryX=1;entryY=0;entryDx=0;entryDy=0;" parent="1" source="-SY4UaUG2rWS23JNXaPK-7" target="-SY4UaUG2rWS23JNXaPK-5" edge="1">
          <mxGeometry width="50" height="50" relative="1" as="geometry">
            <mxPoint x="565" y="130" as="sourcePoint" />
            <mxPoint x="575" y="70" as="targetPoint" />
          </mxGeometry>
        </mxCell>
        <mxCell id="-SY4UaUG2rWS23JNXaPK-18" value="" style="endArrow=classic;html=1;rounded=0;exitX=0;exitY=0.5;exitDx=0;exitDy=0;" parent="1" source="-SY4UaUG2rWS23JNXaPK-9" edge="1">
          <mxGeometry width="50" height="50" relative="1" as="geometry">
            <mxPoint x="545" y="250" as="sourcePoint" />
            <mxPoint x="545" y="160" as="targetPoint" />
          </mxGeometry>
        </mxCell>
        <mxCell id="-SY4UaUG2rWS23JNXaPK-19" value="" style="endArrow=classic;html=1;rounded=0;exitX=0;exitY=0.5;exitDx=0;exitDy=0;entryX=1;entryY=1;entryDx=0;entryDy=0;" parent="1" source="-SY4UaUG2rWS23JNXaPK-11" target="-SY4UaUG2rWS23JNXaPK-5" edge="1">
          <mxGeometry width="50" height="50" relative="1" as="geometry">
            <mxPoint x="565" y="260" as="sourcePoint" />
            <mxPoint x="545" y="160" as="targetPoint" />
          </mxGeometry>
        </mxCell>
        <mxCell id="-SY4UaUG2rWS23JNXaPK-20" value="&lt;a style=&quot;box-sizing: border-box; color: rgb(255, 255, 255); font-family: sans-serif; font-size: 13.12px; text-align: left; background-color: rgb(136, 136, 136);&quot; draggable=&quot;false&quot; data-raw-text=&quot;db_cppowerhouse&quot; href=&quot;http://localhost/phpmyadmin/index.php?route=/database/structure&amp;amp;db=db_cppowerhouse&quot;&gt;db_cppowerhouse&lt;/a&gt;" style="text;html=1;strokeColor=none;fillColor=none;align=center;verticalAlign=middle;whiteSpace=wrap;rounded=0;" parent="1" vertex="1">
          <mxGeometry x="427.5" y="280" width="115" height="30" as="geometry" />
        </mxCell>
        <mxCell id="-SY4UaUG2rWS23JNXaPK-26" value="" style="rounded=0;whiteSpace=wrap;html=1;" parent="1" vertex="1">
          <mxGeometry x="230" y="370" width="535" height="320" as="geometry" />
        </mxCell>
        <mxCell id="-SY4UaUG2rWS23JNXaPK-21" value="favourite_contest" style="swimlane;fontStyle=0;childLayout=stackLayout;horizontal=1;startSize=30;horizontalStack=0;resizeParent=1;resizeParentMax=0;resizeLast=0;collapsible=1;marginBottom=0;whiteSpace=wrap;html=1;" parent="1" vertex="1">
          <mxGeometry x="255" y="380" width="140" height="300" as="geometry">
            <mxRectangle x="200" y="410" width="130" height="30" as="alternateBounds" />
          </mxGeometry>
        </mxCell>
        <mxCell id="-SY4UaUG2rWS23JNXaPK-22" value="id" style="text;strokeColor=none;fillColor=none;align=left;verticalAlign=middle;spacingLeft=4;spacingRight=4;overflow=hidden;points=[[0,0.5],[1,0.5]];portConstraint=eastwest;rotatable=0;whiteSpace=wrap;html=1;" parent="-SY4UaUG2rWS23JNXaPK-21" vertex="1">
          <mxGeometry y="30" width="140" height="30" as="geometry" />
        </mxCell>
        <mxCell id="-SY4UaUG2rWS23JNXaPK-23" value="name" style="text;strokeColor=none;fillColor=none;align=left;verticalAlign=middle;spacingLeft=4;spacingRight=4;overflow=hidden;points=[[0,0.5],[1,0.5]];portConstraint=eastwest;rotatable=0;whiteSpace=wrap;html=1;" parent="-SY4UaUG2rWS23JNXaPK-21" vertex="1">
          <mxGeometry y="60" width="140" height="30" as="geometry" />
        </mxCell>
        <mxCell id="-SY4UaUG2rWS23JNXaPK-24" value="startTimeSeconds" style="text;strokeColor=none;fillColor=none;align=left;verticalAlign=middle;spacingLeft=4;spacingRight=4;overflow=hidden;points=[[0,0.5],[1,0.5]];portConstraint=eastwest;rotatable=0;whiteSpace=wrap;html=1;" parent="-SY4UaUG2rWS23JNXaPK-21" vertex="1">
          <mxGeometry y="90" width="140" height="30" as="geometry" />
        </mxCell>
        <mxCell id="-SY4UaUG2rWS23JNXaPK-29" value="durationSeconds" style="text;strokeColor=none;fillColor=none;align=left;verticalAlign=middle;spacingLeft=4;spacingRight=4;overflow=hidden;points=[[0,0.5],[1,0.5]];portConstraint=eastwest;rotatable=0;whiteSpace=wrap;html=1;" parent="-SY4UaUG2rWS23JNXaPK-21" vertex="1">
          <mxGeometry y="120" width="140" height="30" as="geometry" />
        </mxCell>
        <mxCell id="-SY4UaUG2rWS23JNXaPK-30" value="phase" style="text;strokeColor=none;fillColor=none;align=left;verticalAlign=middle;spacingLeft=4;spacingRight=4;overflow=hidden;points=[[0,0.5],[1,0.5]];portConstraint=eastwest;rotatable=0;whiteSpace=wrap;html=1;" parent="-SY4UaUG2rWS23JNXaPK-21" vertex="1">
          <mxGeometry y="150" width="140" height="30" as="geometry" />
        </mxCell>
        <mxCell id="-SY4UaUG2rWS23JNXaPK-31" value="platform" style="text;strokeColor=none;fillColor=none;align=left;verticalAlign=middle;spacingLeft=4;spacingRight=4;overflow=hidden;points=[[0,0.5],[1,0.5]];portConstraint=eastwest;rotatable=0;whiteSpace=wrap;html=1;" parent="-SY4UaUG2rWS23JNXaPK-21" vertex="1">
          <mxGeometry y="180" width="140" height="30" as="geometry" />
        </mxCell>
        <mxCell id="-SY4UaUG2rWS23JNXaPK-32" value="startTimeSecondsView" style="text;strokeColor=none;fillColor=none;align=left;verticalAlign=middle;spacingLeft=4;spacingRight=4;overflow=hidden;points=[[0,0.5],[1,0.5]];portConstraint=eastwest;rotatable=0;whiteSpace=wrap;html=1;" parent="-SY4UaUG2rWS23JNXaPK-21" vertex="1">
          <mxGeometry y="210" width="140" height="30" as="geometry" />
        </mxCell>
        <mxCell id="-SY4UaUG2rWS23JNXaPK-33" value="durationSecondsView" style="text;strokeColor=none;fillColor=none;align=left;verticalAlign=middle;spacingLeft=4;spacingRight=4;overflow=hidden;points=[[0,0.5],[1,0.5]];portConstraint=eastwest;rotatable=0;whiteSpace=wrap;html=1;" parent="-SY4UaUG2rWS23JNXaPK-21" vertex="1">
          <mxGeometry y="240" width="140" height="30" as="geometry" />
        </mxCell>
        <mxCell id="-SY4UaUG2rWS23JNXaPK-34" value="link" style="text;strokeColor=none;fillColor=none;align=left;verticalAlign=middle;spacingLeft=4;spacingRight=4;overflow=hidden;points=[[0,0.5],[1,0.5]];portConstraint=eastwest;rotatable=0;whiteSpace=wrap;html=1;" parent="-SY4UaUG2rWS23JNXaPK-21" vertex="1">
          <mxGeometry y="270" width="140" height="30" as="geometry" />
        </mxCell>
        <mxCell id="-SY4UaUG2rWS23JNXaPK-27" value="" style="endArrow=classic;html=1;rounded=0;exitX=0.5;exitY=1;exitDx=0;exitDy=0;entryX=0.477;entryY=0.011;entryDx=0;entryDy=0;entryPerimeter=0;" parent="1" source="-SY4UaUG2rWS23JNXaPK-20" target="-SY4UaUG2rWS23JNXaPK-26" edge="1">
          <mxGeometry width="50" height="50" relative="1" as="geometry">
            <mxPoint x="455" y="380" as="sourcePoint" />
            <mxPoint x="505" y="330" as="targetPoint" />
          </mxGeometry>
        </mxCell>
        <mxCell id="-SY4UaUG2rWS23JNXaPK-35" value="friends" style="swimlane;fontStyle=0;childLayout=stackLayout;horizontal=1;startSize=30;horizontalStack=0;resizeParent=1;resizeParentMax=0;resizeLast=0;collapsible=1;marginBottom=0;whiteSpace=wrap;html=1;" parent="1" vertex="1">
          <mxGeometry x="430" y="380" width="140" height="120" as="geometry" />
        </mxCell>
        <mxCell id="-SY4UaUG2rWS23JNXaPK-36" value="platform" style="text;strokeColor=none;fillColor=none;align=left;verticalAlign=middle;spacingLeft=4;spacingRight=4;overflow=hidden;points=[[0,0.5],[1,0.5]];portConstraint=eastwest;rotatable=0;whiteSpace=wrap;html=1;" parent="-SY4UaUG2rWS23JNXaPK-35" vertex="1">
          <mxGeometry y="30" width="140" height="30" as="geometry" />
        </mxCell>
        <mxCell id="-SY4UaUG2rWS23JNXaPK-37" value="username" style="text;strokeColor=none;fillColor=none;align=left;verticalAlign=middle;spacingLeft=4;spacingRight=4;overflow=hidden;points=[[0,0.5],[1,0.5]];portConstraint=eastwest;rotatable=0;whiteSpace=wrap;html=1;" parent="-SY4UaUG2rWS23JNXaPK-35" vertex="1">
          <mxGeometry y="60" width="140" height="30" as="geometry" />
        </mxCell>
        <mxCell id="-SY4UaUG2rWS23JNXaPK-38" value="url" style="text;strokeColor=none;fillColor=none;align=left;verticalAlign=middle;spacingLeft=4;spacingRight=4;overflow=hidden;points=[[0,0.5],[1,0.5]];portConstraint=eastwest;rotatable=0;whiteSpace=wrap;html=1;" parent="-SY4UaUG2rWS23JNXaPK-35" vertex="1">
          <mxGeometry y="90" width="140" height="30" as="geometry" />
        </mxCell>
        <mxCell id="-SY4UaUG2rWS23JNXaPK-39" value="problemset" style="swimlane;fontStyle=0;childLayout=stackLayout;horizontal=1;startSize=30;horizontalStack=0;resizeParent=1;resizeParentMax=0;resizeLast=0;collapsible=1;marginBottom=0;whiteSpace=wrap;html=1;" parent="1" vertex="1">
          <mxGeometry x="605" y="380" width="140" height="120" as="geometry" />
        </mxCell>
        <mxCell id="-SY4UaUG2rWS23JNXaPK-40" value="platform" style="text;strokeColor=none;fillColor=none;align=left;verticalAlign=middle;spacingLeft=4;spacingRight=4;overflow=hidden;points=[[0,0.5],[1,0.5]];portConstraint=eastwest;rotatable=0;whiteSpace=wrap;html=1;" parent="-SY4UaUG2rWS23JNXaPK-39" vertex="1">
          <mxGeometry y="30" width="140" height="30" as="geometry" />
        </mxCell>
        <mxCell id="-SY4UaUG2rWS23JNXaPK-41" value="name" style="text;strokeColor=none;fillColor=none;align=left;verticalAlign=middle;spacingLeft=4;spacingRight=4;overflow=hidden;points=[[0,0.5],[1,0.5]];portConstraint=eastwest;rotatable=0;whiteSpace=wrap;html=1;" parent="-SY4UaUG2rWS23JNXaPK-39" vertex="1">
          <mxGeometry y="60" width="140" height="30" as="geometry" />
        </mxCell>
        <mxCell id="-SY4UaUG2rWS23JNXaPK-42" value="link" style="text;strokeColor=none;fillColor=none;align=left;verticalAlign=middle;spacingLeft=4;spacingRight=4;overflow=hidden;points=[[0,0.5],[1,0.5]];portConstraint=eastwest;rotatable=0;whiteSpace=wrap;html=1;" parent="-SY4UaUG2rWS23JNXaPK-39" vertex="1">
          <mxGeometry y="90" width="140" height="30" as="geometry" />
        </mxCell>
        <mxCell id="4aZllrbJ_D_fgoe5qWXL-1" value="NotificationService" style="whiteSpace=wrap;html=1;rounded=0;" vertex="1" parent="1">
          <mxGeometry x="110" y="130" width="120" height="60" as="geometry" />
        </mxCell>
      </root>
    </mxGraphModel>
  </diagram>
</mxfile>
